<svg version="1.2" xmlns="http://www.w3.org/2000/svg" viewBox="0 0 675 125" width="675" height="125"><style>.a{fill:#d62413}.b{fill:#063b88}.c{fill:#fff}</style><path class="a" d="m19.3 38.5c6.5-13.4 18.3-24 33.7-28.4 4.3-1.2 8.7-1.9 13-2.1l4.5 15.8z"/><path class="b" d="m45 31.1l51.5-14.8c5.9 3.7 11.1 8.6 15.2 14.3l-61.8 17.7z"/><path class="a" d="m80.4 58.1l-64.3 18.5c-1.7-6-2.3-12.1-2-18l61.4-17.6z"/><path class="b" d="m54.8 65.5l64.7-18.6c1.7 6 2.4 12.1 2 18.1l-61.7 17.7z"/><path class="a" d="m90.5 92.5l-51.4 14.8c-5.9-3.7-11-8.6-15.1-14.4l61.5-17.6z"/><path class="b" d="m116.3 85.1c-6.5 13.4-18.3 24-33.7 28.4-4.4 1.3-9 1.9-13.4 2.1l-4.5-15.7zm-108.3-23.3c0-31.9 25-57.9 56.4-59.7l1 3.6c-29.8 1.3-53.7 25.9-53.7 56.1 0 30.1 23.9 54.8 53.7 56q1.2 0.1 2.5 0.1 1 0 2 0l1 3.6q-1.5 0.1-3 0.1-1.2 0-2.4-0.1c-31.9-1.2-57.5-27.5-57.5-59.7z"/><path class="a" d="m65.5 2.1q1.1-0.1 2.3-0.1c33 0 59.8 26.8 59.8 59.8 0 32-25.1 58.1-56.7 59.7l-1-3.6c30-1.1 54-25.8 54-56.1 0-31-25.1-56.1-56.1-56.1h-0.2q-1.1 0-2.2 0l-1.1-3.6z"/><path class="b" d="m377.2 64.4v-2.5q-4-0.2-5.1-1.4c-0.8-0.9-1.1-2.7-1-5.7v-27.3c-0.1-2.9 0.2-4.8 1-5.6q1.1-1.2 5.1-1.4v-2.5h-21.9v2.5q3.9 0.2 5.1 1.4 1.2 1.2 1 5.6v27.3q0.2 4.4-1 5.7-1.2 1.2-5.1 1.4v2.5zm64.4 0v-2.5q-4.2-0.3-5.2-1.7-1.1-1.4-1-6.2l-0.7-26.2q-0.3-4.4 0.7-5.7 1-1.4 5.3-1.6v-2.5h-14.6l-14.7 31.4-14.3-31.4h-15.1v2.5q4.6 0.2 5.7 2.1 1.2 1.8 0.5 7.7l-1.1 13.7q-0.4 5.7-0.8 8.9-0.4 3.1-0.7 4.8-0.3 1.8-1.7 2.9-1.3 1-4.4 1.3v2.5h17.7v-2.5q-3.6-0.3-5-1.1-1.4-0.8-1.6-3.1-0.2-1.7-0.3-4.4 0-2.8 0.2-7.2l1-18.7h0.3l15.1 36.5h2l16.4-37.1h0.4l0.1 27.2q0.2 4.8-0.8 6.2-1.1 1.4-5 1.7v2.5zm39.8-12.6q-2 4.8-4.1 7.1-1.3 1.4-3.3 1.9-2.1 0.4-4.8 0.4-2 0-3.9-0.1-1.8-0.2-2.8-0.6-1.1-0.5-1.4-1.9-0.4-1.5-0.3-4v-12.1h4.9q4.5-0.2 6.1 0.8 1.5 0.9 2.1 4.6h2.6v-14.5h-2.6q-0.6 3.6-2.1 4.6-1.6 0.9-6.1 0.8h-4.9v-15.1q-0.1-1.7 0.4-2.2 0.5-0.4 2.6-0.3h3.7q2.9 0 4.5 0.4 1.7 0.4 2.6 1.4 1 1 1.8 2.6 0.8 1.7 1.2 3.6l2.7-0.3q-0.2-3.6-0.5-6.7-0.2-3.1-0.2-4.2h-34.6v2.5q3.9 0.1 5 1.3 1.1 1.2 1 5.8v27.2q0.1 4.4-1.2 5.6-1.2 1.2-5.8 1.5v2.5h37.4q0.5-1.9 1.3-5.6 0.9-3.7 1.3-6.4zm-298-9.5h-22.1v2.5q5.6 0.4 7.1 1.5 1.4 1.2 1.1 5v6.2q0 1.7-0.5 2.7-0.4 0.9-1.2 1.4-0.9 0.5-2 0.7-1.2 0.2-2.4 0.2-6.3-0.1-10.3-3.4-4.1-3.2-6-8.3-1.9-5-1.9-10.4 0.2-9.6 5.1-15 4.8-5.4 11.8-5.4 5.5-0.1 9.4 2.7 3.9 2.8 5.2 8.8l2.7-0.6q-0.4-4.3-0.7-7.2-0.3-2.9-0.4-4.7-2.1-0.5-6-1.3-4-0.7-8.7-0.8-7.9 0-14.6 2.8-6.6 2.8-10.6 8.3-4.1 5.5-4.2 13.6 0.2 11 7.8 17.4 7.6 6.3 20.7 6.5 4.5-0.1 9-1 4.5-0.9 8-1.7-0.3-1.4-0.4-3.1-0.1-1.7-0.1-3.6v-5.4q-0.1-3.5 0.7-4.5 0.8-1 3.5-1.4z"/><path fill-rule="evenodd" class="b" d="m219.9 32.1q7.7 0.2 12.1 4.8 4.5 4.6 4.6 11.2-0.1 5.7-2.5 9.5-2.5 3.8-6.4 5.7-3.8 1.9-8.1 1.9-5.8-0.1-9.6-2.4-3.8-2.3-5.7-5.9-1.9-3.5-1.9-7.5 0.1-5.7 2.7-9.5 2.6-3.9 6.6-5.8 4-2 8.2-2zm-1.1 2.8q-2.4 0-4.2 2.9-1.8 2.9-1.9 9 0.1 6.6 2.1 11 2.1 4.4 5.6 4.6 2.2 0.2 3.9-2.1 1.7-2.4 1.8-10.1 0-7.5-1.8-11.4-1.9-3.9-5.4-3.9zm34.1-1.5q1.5-0.7 2.6-1 1.1-0.3 2.1-0.3 6.7 0.2 10.8 4.5 4.2 4.3 4.3 10.4-0.2 7.9-5.5 13-5.3 5-13.4 5.2-3 0-6.1-0.6-3-0.6-6.7-2v-38.6q0.1-3-0.7-4-0.8-1-3.8-1.1v-2.2q2.9-0.4 6.7-1 3.8-0.7 7-1.6v20.6zm-2.7 23.2q0 0.7 0.1 1.3 0 0.6 0.2 1c0.2 0.6 0.8 1.3 1.6 2.1q1.2 1.1 3 1.3 3 0.1 5.2-3.1 2.2-3.2 2.3-9.8-0.2-6.8-3-9.7-2.8-3-6.4-2.9-1 0-1.6 0.1-0.6 0.1-1.4 0.3zm59.3 7.8v-2.3q3.1-0.4 3.9-1.3 0.9-1 0.8-4.3v-32.6q0.1-3.1-0.7-3.9-0.8-0.9-3.7-1.1v-2.2q3.2-0.3 6.9-1 3.6-0.8 6.8-1.6v42.4q-0.1 3.5 0.7 4.4 0.9 1 4.2 1.2v2.3zm-126.1 0v-2.3q3.1-0.4 4-1.3 0.8-1 0.7-4.3v-32.6q0.1-3.1-0.7-3.9-0.8-0.9-3.7-1.1v-2.2q3.3-0.3 6.9-1 3.6-0.8 6.8-1.6v42.4q-0.1 3.5 0.8 4.4 0.8 1 4.1 1.2v2.3zm123.7-2.9l-7.2 3.7q-1.5 0-2.6-0.4-1.1-0.4-1.8-1-0.7-0.7-1.2-1.4-0.4-0.7-0.6-1.3-2.3 1.4-4.5 2.7-2.1 1.3-3.2 1.4-4.6-0.1-7.2-2.9-2.6-2.8-2.6-6.2 0-2.8 1.4-4.3 1.3-1.5 4.2-2.5 3.5-1.2 6.8-2.4 3.4-1.3 4.8-2.3v-1.9q0-3.4-1.2-5.3-1.2-1.9-3.3-1.9-0.7 0-1.3 0.4-0.6 0.3-1.1 0.9-0.7 0.7-1.2 2-0.5 1.3-0.9 3-0.4 1.4-1.2 1.9-0.8 0.5-2 0.5-1.5-0.1-2.9-1.1-1.4-1.1-1.5-2.6 0-1 0.7-1.7 0.7-0.8 1.9-1.7 2.1-1.4 5.5-2.9 3.3-1.4 6.5-2.1 2.1 0 3.8 0.4 1.7 0.5 3.1 1.5 2.5 1.8 3.2 4.2 0.8 2.5 0.8 5.6v11.4q0 2.5 0.7 3.4 0.7 0.9 1.6 0.8 0.6 0 1.2-0.2 0.7-0.2 1.3-0.4z"/><path class="c" d="m293.5 58.7q-1 0.7-1.7 0.9-0.7 0.3-1.5 0.3-1.3 0-2.8-1.2-1.4-1.3-1.5-4.3 0-1.8 0.9-3 0.9-1.1 2.6-1.9 1.1-0.6 2.1-1.1 1-0.6 1.9-1.1z"/><path fill-rule="evenodd" class="b" d="m537.6 39.6q6.4 0.6 10.2 3.3 3.7 2.7 3.8 7.8 0 3.5-1.8 6.2-1.8 2.7-5 4.4-2.8 1.5-6.7 2.3-4 0.8-8.6 0.8h-18.6v-2.6q4.1-0.2 5.3-1.4 1.2-1.2 1-5.6v-27.3q0.2-4.4-1-5.6-1.1-1.2-4.8-1.4v-2.5h21.3q4.2 0 7 0.6 2.9 0.5 5 1.8 2 1.3 3.2 3.4 1.1 2.1 1.1 4.8-0.2 5.1-3.7 7.5-3.6 2.4-7.7 3.1zm-9.3-1.2q5.3 0 7.8-2.1 2.5-2 2.5-6.4-0.1-4.8-2.4-6.9-2.4-2.1-5.5-2-1.2 0-2.1 0.3-0.9 0.3-1.2 0.6-0.4 0.4-0.5 1.2-0.2 0.7-0.2 1.8v13.5zm-1.6 16.2q0 3.9 1.2 5.4 1.3 1.4 4.3 1.3 3.2 0 5.9-2.4 2.7-2.3 2.8-7.5 0-5-3.2-7.6-3.2-2.5-9.6-2.5h-1.4zm81.7 9.8v-2.3q2.1-0.2 2.8-1.2 0.6-1 0.6-4.7v-11.9q-0.1-3.8-1.6-5.3-1.6-1.4-3.5-1.4-1.4 0-2.7 0.6-1.3 0.6-2.7 1.6v17.2q-0.1 3.1 0.5 4 0.6 0.9 2.8 1.1v2.3h-17.4v-2.3q3.3-0.3 4.2-1.2 0.8-0.9 0.7-4.4v-14.5q0-3.1-0.7-3.9-0.7-0.9-3.2-1.3v-2.1q2.9-0.4 6.3-1.1 3.4-0.7 6.8-1.7v5.4q1-0.7 2.1-1.6 1.2-0.8 2.4-1.6 1.6-1.1 2.9-1.5 1.3-0.5 2.7-0.5 4.4 0.1 7 3.1 2.5 3 2.5 8.6v13.2q0 3.1 0.7 4 0.8 0.8 3.7 1.1v2.3zm44.9 0.1q-1.7-2.1-4.4-6.1-2.8-4.1-5.3-8-0.4-0.5-0.7-0.7-0.3-0.3-0.7-0.3-0.1-0.1-0.3-0.1-0.2-0.1-0.4-0.1v7.6q-0.1 3.3 0.9 4.1 0.9 0.9 3.9 1.2v2.3h-18.6v-2.3q3.2-0.3 4.1-1.2 0.8-0.8 0.7-4.1v-33.1q0.1-2.9-0.7-3.8-0.9-0.9-3.7-1.1v-2.1q2.5-0.3 6-0.9 3.5-0.6 7.4-1.7v33.1q1.3-0.4 2.3-1.2 1-0.8 1.8-1.6 1.2-1.3 2.4-3.2 1.3-1.8 1.9-3 0.6-1.1 0.2-1.8-0.5-0.7-2.5-1.1v-2.2l16-0.6v2.2q-3.3 0.5-5.5 1.3-2.2 0.9-3.8 2.3-1.5 1.4-2.6 2.7-1.1 1.3-2.6 3.2 1.1 1.7 3.2 4.5 2.1 2.8 4.2 5.5 2.2 2.8 3.3 4.2 1.7 2 3.1 2.7 1.3 0.8 3.2 1v2.3zm-68.5-3l-7.1 3.7q-1.5 0-2.6-0.4-1.1-0.4-1.9-1-0.7-0.7-1.1-1.4-0.5-0.7-0.7-1.3-2.3 1.4-4.4 2.7-2.2 1.3-3.2 1.4-4.7-0.1-7.3-2.9-2.5-2.7-2.5-6.2-0.1-2.8 1.3-4.3 1.4-1.5 4.3-2.5 3.5-1.2 6.8-2.4 3.3-1.3 4.7-2.3v-1.9q0-3.4-1.1-5.3-1.2-1.9-3.4-1.9-0.7 0-1.3 0.4-0.6 0.3-1.1 0.9-0.6 0.7-1.1 2-0.5 1.3-1 3-0.4 1.4-1.2 1.9-0.8 0.5-1.9 0.5-1.5-0.1-2.9-1.1-1.4-1.1-1.5-2.5 0-1 0.6-1.8 0.7-0.8 1.9-1.7 2.2-1.4 5.5-2.9 3.3-1.4 6.5-2.1 2.2 0 3.9 0.5 1.6 0.4 3.1 1.4 2.4 1.8 3.2 4.3 0.8 2.4 0.7 5.5v11.4q0.1 2.5 0.8 3.4 0.6 0.9 1.5 0.8 0.6 0 1.3-0.2 0.6-0.2 1.2-0.4z"/><path class="c" d="m571.2 58.7q-1 0.7-1.7 0.9-0.7 0.3-1.5 0.3-1.3 0-2.8-1.2-1.4-1.3-1.5-4.3 0-1.8 0.9-3 0.9-1.1 2.6-1.9 1.1-0.6 2.1-1.1 0.9-0.6 1.9-1.1z"/><path class="b" d="m666.1 92v6.9h-304.7v-6.9z"/><path class="a" d="m666.1 82.5v6.9h-304.7v-6.9z"/><path fill-rule="evenodd" class="b" d="m196.4 85h-2.3v13.9l-3-3v-5.8q-0.4 0.2-0.8 0.3-0.3 0.2-0.8 0.5-0.6 0.3-1.3 1.1l-0.6 0.7-2-2.1 0.9-0.9q-0.6-0.5-1.4-0.5-0.3 0-0.8 0.1-0.5 0.2-0.9 0.8-0.4 0.6-0.4 1.4 0 0.9 0.7 1.6l2.9 2.8-0.9 1-2.8-2.7-1.7-1.8q-0.8-1-0.8-2 0-0.1 0-0.5 0.2-1.1 1-1.9 0.7-0.6 2-1 0.5-0.1 2.1 0.3 1.6 0.5 2.2 1.3 0.3-0.3 0.5-0.4 0.5-0.3 1-0.4l0.7-0.2q0.4-0.1 0.7-0.1h0.5v-2.5h-13.6v13.9l-2.4-2.5v-2.3q-0.7 1-1.8 1.5-1 0.4-2.3 0.4-1.3 0-2.8-1.6-1.4-1.6-1.4-3.4 0-1.7 1.7-2.9 1.5-1.1 3-1.1 1 0 2.2 0.7 1 0.7 1.4 1.3v-4h-11v13.9l-2.7-3.1v-10.8h-4.3v13.9l-3-3v-5.8q-0.4 0.2-0.8 0.3-0.3 0.2-0.8 0.5c-0.4 0.2-0.8 0.6-1.3 1.1l-0.6 0.7-2-2.1 0.9-0.9q-0.6-0.5-1.4-0.5-0.3 0-0.8 0.1-0.5 0.2-0.9 0.8-0.4 0.6-0.4 1.4 0 0.9 0.7 1.6l2.9 2.8-0.9 1-2.8-2.7-1.7-1.8q-0.8-1-0.8-2 0-0.1 0-0.5 0.2-1.1 1-1.9 0.7-0.6 2-1 0.5-0.1 2.1 0.3 1.6 0.5 2.2 1.3 0.3-0.3 0.5-0.4 0.5-0.3 1-0.4l0.8-0.2q0.3-0.1 0.6-0.1h0.5v-2.5h-14.3v8.6q0 0.4-0.1 0.7-0.1 0.3-0.3 0.4-0.2 0.2-0.4 0.2-0.4 0-0.7-0.3-0.3-0.2-0.5-0.5l-2.5-3.7-0.2-0.4q-0.1-0.3-0.1-0.4 0-0.2 0.1-0.4 0.1-0.1 0.5-0.2h0.5 1.5v-4h-3.2v-2.5h27.7c-0.3-0.5-0.8-1.1-1.2-1.4q-0.4-0.4-0.8-0.6-0.5-0.3-1-0.4l-0.6-0.2q-0.2 0-0.5 0-0.4 0-0.9 0.1l-1.9-2.7q0.6-0.1 1.1-0.1 1.7 0 3.4 1 0.6 0.4 1.1 0.9l1 1.2q0.5 0.6 0.8 1c0.2 0.3 0.5 0.8 0.7 1.2h33.1zm-21.3 5.8q-0.3-0.4-0.7-0.7-0.3-0.3-0.7-0.4-0.5-0.1-0.8-0.1-0.7 0-1.3 0.2-0.6 0.1-0.8 0.3l2.2 2.6q0.3-0.1 0.7-0.4 0.4-0.2 0.7-0.6 0.4-0.4 0.7-0.9zm-3.1 2.4l-2.2-2.5q-0.3 0-0.8 0.5-0.6 0.4-0.6 0.9 0 0.7 0.6 1.1 0.5 0.5 1.2 0.6 0.5 0.1 1.4-0.4 0.2 0 0.4-0.2zm107.8-14.9l-0.5 0.5q-0.3-0.3-0.6-0.4-0.4-0.2-0.7-0.2-0.5 0-0.9 0.1-0.3 0-0.6 0.3-0.3 0.2-0.5 0.5-0.1 0.4-0.2 1.3 0 0.9 0 1.2c0.1 0.2 0.2 0.6 0.4 0.9h4.7v2.5h-3.9v4.6h-4.4q-0.7 0-1.1 0.2-0.4 0.2-0.5 0.9-0.1 0.7 0.6 0.9 0.7 0.2 1.8 0.2 0.5 0 1 0l1.2-0.2q0.6 0 1.1 0.3 0.4 0.3 1 0.9 0.5 0.6 0.8 1.2 0.2 0.6 0.2 1.4 0 1.3-0.9 2.3-0.7 0.7-1.7 0.8l2.8 2.8h-1.7l-2.5-2.5q-0.7 0.3-1.4 0.3-0.5 0-1.3-0.3-0.8-0.2-1.3-0.6-0.6-0.6-0.6-1.3 0-1.5 1.4-1.8 0.1 0 0.3 0 0.6 0 1.5 0.6 0.8 0.7 1.3 0.7 0.3-0.1 0.4-0.1 0.8-0.3 1.3-0.8 0.5-0.4 0.5-1 0-0.4-0.2-0.6-0.2-0.2-0.6-0.2-0.4 0-1 0.1-1.3 0.3-1.7 0.3h-0.3q-1.1-0.2-1.9-0.9-0.3-0.3-0.9-0.9-0.5-0.8-0.8-1.2-0.5-0.9-0.5-1.7 0-0.4 0.1-0.7 0.7-1.5 2.4-1.5h3.5v-2.2h-9.2v13.9l-2.8-2.7v-3.6h-4.9v2.4q0 0.5-0.3 0.6-0.2 0.1-0.5-0.2l-0.3-0.4-3.4-3.5q-0.5-0.6-0.3-1.2 0-0.6 0.6-0.6h1.6v-4.7h-4.8v6.2q-0.2 0.3-0.2 0.4-0.1 0.2-0.3 0.5l-0.4 0.5-1.7 1.9-2-2 1.1-1.4 0.4-0.4q0.2-0.2 0.3-0.4 0-0.2 0-0.4v-4.9h-4.6v7.4q0 0.9 0.2 1.3c0.1 0.2 0.3 0.4 0.5 0.5l5.6 3.3q1.3 0.8 1.9 1.3 0.8 0.8 0.8 1.9 0 0.7-0.2 1.1-0.1 0.4-0.5 0.9-0.8 0.8-1.9 0.8l-1.3-2.1 1-0.4q0.6-0.2 0.6-0.9 0-0.3-0.2-0.7-0.2-0.3-0.7-0.5l-6.2-3.7q-0.4-0.2-0.9-0.6l-0.8-0.6q-0.4-0.3-0.5-0.6-0.1-0.4-0.1-1v-7.4h-4.5v4.6h-4.4q-0.7 0-1.1 0.2-0.4 0.2-0.5 0.9-0.1 0.7 0.6 0.9 0.7 0.2 1.8 0.2 0.5 0 1 0l1.2-0.2q0.6 0 1.1 0.3 0.4 0.3 1 0.9 0.5 0.6 0.7 1.2 0.3 0.6 0.3 1.4 0 1.3-0.9 2.3-0.8 0.7-1.7 0.8l2.7 2.8h-1.7l-2.4-2.5q-0.8 0.3-1.4 0.3-0.6 0-1.3-0.3-0.8-0.2-1.3-0.6-0.6-0.6-0.6-1.3 0-1.5 1.4-1.8 0.1 0 0.3 0 0.6 0 1.4 0.6 0.9 0.7 1.4 0.7 0.3-0.1 0.4-0.1 0.7-0.3 1.3-0.8 0.5-0.4 0.5-1 0-0.4-0.2-0.6-0.2-0.2-0.7-0.2-0.3 0-0.9 0.1-1.3 0.3-1.7 0.3h-0.3q-1.1-0.2-1.9-0.9-0.3-0.3-0.9-0.9-0.5-0.8-0.8-1.2-0.5-0.9-0.5-1.7 0-0.4 0.1-0.7 0.6-1.5 2.3-1.5h3.6v-2.2h-9.1v13.9l-2.7-3.1v-10.8h-4.5v13.9l-2.7-2.6v-4h-2.4q0.1 0.2 0.1 0.6 0 1.4-1 2.6-1.1 1.1-2.5 1.1-1.2 0-2.1-0.7-0.8-0.6-1.6-1.8-1.1-1.6-1.1-3.3 0-0.6 0-0.8l0.8-0.1q0.1 0.7 0.3 1.2 0.3 0.5 0.8 1.1 0.6 0.8 1 1.1 0.7 0.5 1.4 0.5 0.9 0 1.5-0.5 0.6-0.5 0.6-1.3 0-0.7-0.7-1.3-0.7-0.6-1.5-0.7-0.4 0-0.8 0.2l-1.8-2.5q0.2 0 0.7 0 1 0 2-0.5 0.9-0.6 1.1-0.8 0.6-0.5 0.5-1.1-0.1-0.6-0.4-0.9-0.4-0.2-0.9-0.2-0.5 0-1.1 0-0.5 0.2-1.4 0.5-0.8 0.4-1 0.6l-1-2.1q0.5-0.3 1.3-0.5 0.8-0.2 1.5-0.2 0.3 0.1 0.5 0 1.4 0.2 2.3 0.6 1 0.5 1.4 1.5 0.1 0.3 0.2 0.8 0.1 0.5 0.1 0.7 0 0.9-0.5 1.7-0.5 0.8-1.4 1.2 0.2 0.3 1.2 0.7 1 0.4 1.8 0.4 0.9 0 1.5-0.5 0.6-0.5 0.6-1.3v-3.3h-1l-1.6-2.5h63.3c-0.2-0.4-0.5-0.9-0.6-1.2q-0.2-0.5-0.2-1.2v-0.9q0-0.6 0.1-0.8 0-0.2 0.3-0.7 0.3-0.7 0.7-1 0.5-0.5 1.1-0.5 0.4 0 0.7 0.1 0.3 0.2 0.9 0.5 0.9 0.6 1.2 1.5zm-21.8 6.7v4.7h4.9v-4.7zm40.8-6.1q0.2 1 0.2 1.7 0 0.6 0 0.9c0 0.2 0 0.6-0.1 1h21.2v2.5h-7.7v3q0.9-0.7 1.9-0.7 0.2 0 0.5 0.1 0.4 0.1 0.8 0.2 0.4 0.1 0.8 0.5 0.4 0.3 1 1.2 1 1.6 1 3.4 0 1.2-0.2 2.1-0.2 0.9-0.8 1.9l-2.3-2.1 0.9-1.7q0.5-1 0.5-1.9 0-0.8-0.6-1.1-0.2-0.2-0.6-0.2-0.3 0-0.5 0.1-0.6 0.3-0.9 0.4-1 0.4-1.5 1.2v7.7l-3.1-3v-3q-0.5 0.5-1.3 0.8-0.8 0.2-1.6 0.2-0.4 0-0.7-0.1-0.8-0.2-1.7-1.5-1.1-1.4-1.1-2.6 0-1.1 0.7-1.9 0.7-0.8 1.9-1.2 0.3 0 0.5 0 0.9 0 2.2 0.6 0.4 0.2 1.1 0.6v-3h-9.6v13.9l-2.4-2.4v-2.4q-0.7 1.1-1.8 1.5-1.1 0.5-2.3 0.5-1.4 0-2.8-1.6-1.5-1.7-1.5-3.4 0-1.7 1.7-3 1.5-1.1 3-1.1 1.1 0 2.2 0.8 1.1 0.6 1.5 1.2v-4h-8.5v-2.5h9.1c-0.4-0.2-0.9-0.6-1.4-0.8q-0.8-0.3-1.7-0.5-1-0.3-1.9-0.2h-1l-0.7 0.1-0.6-3.6q1.4 0 2.5 0.3 0.6 0.2 1.1 0.5 0.2 0.1 1.7 1 1.2 0.9 2.2 1.9-0.4-2-2-3.4-0.3-0.3-0.7-0.6-0.4-0.2-0.8-0.4l-0.1-2.5q0.8 0.1 1.5 0.5 0.7 0.3 1.4 1 0.6 0.6 0.9 1.3 0.3 0.8 0.5 1.8zm-4.6 14.3l-2.3-2.5q-0.2 0-0.8 0.5-0.5 0.4-0.5 0.9 0 0.7 0.5 1.1 0.5 0.5 1.2 0.6 0.6 0.1 1.5-0.4 0.1 0 0.4-0.2zm3.1-2.4q-0.3-0.4-0.7-0.7-0.4-0.3-0.8-0.4-0.4-0.1-0.8-0.1-0.6 0-1.2 0.2-0.6 0.1-0.9 0.3l2.3 2.6q0.2-0.1 0.6-0.4 0.4-0.2 0.8-0.6 0.4-0.4 0.7-0.9zm11.7-0.6v-0.6q-0.1-0.1-0.6-0.2-0.5-0.1-0.9-0.1-1.1 0-1.7 0.3-0.4 0.3-0.8 0.7-0.3 0.3-0.3 0.7 0 0.3 0.2 0.6 0.2 0.3 0.7 0.3 0.4 0 0.7-0.1l1-0.5 0.8-0.3q0.5-0.3 0.9-0.8zm-6.4-10.9l-1.5 1.6-1.6-1.6 1.6-1.5zm39.5 2.7h-0.7q-0.2-1-1.2-2.2-1.2-1.5-2.5-1.9-0.5-0.2-1.3-0.3-0.7-0.2-1.2-0.2-0.8 0-1.4 0.3-0.6 0.2-1 0.8-0.9 1-0.9 2.3 0 0.9 0.4 1.8h19.7v2.4h-2.3v13.9l-3-2.9v-5.8q-0.4 0.1-0.8 0.3-0.3 0.2-0.8 0.5-0.5 0.3-1.2 1.1l-0.7 0.7-2-2.1 0.9-0.9q-0.6-0.6-1.4-0.6-0.3 0-0.8 0.2-0.5 0.1-0.9 0.8-0.3 0.6-0.3 1.4 0 0.9 0.6 1.6l2.9 2.8-0.9 1-2.8-2.8-1.7-1.7q-0.8-1-0.8-2 0-0.1 0-0.5 0.3-1.2 1-1.9 0.7-0.7 2-1 0.6-0.2 2.1 0.3 1.6 0.4 2.2 1.3 0.4-0.3 0.5-0.4 0.5-0.3 1-0.5l0.8-0.2q0.3 0 0.6 0h0.5v-2.6h-13.8v13.9l-2.7-2.7v-11.2h-2.2v-2.4h2.1q-0.5-0.7-0.7-1.5-0.1-0.8-0.1-1.8 0-1.1 0.8-2.1 0.7-0.6 2-1.3 0.6-0.3 1.5-0.3 1.1 0 2.3 0.3 1.3 0.4 2.4 1 1.5 1 2.4 2.2 0.9 1.1 1.4 2.9zm13 15.3l-1.6 1.6-1.5-1.5 1.5-1.6zm310.9 14.8h-5.9v2.3q0.7-0.5 1.4-0.5 0.2 0 0.5 0.1 0.2 0 0.5 0.1c0.2 0.1 0.4 0.2 0.7 0.4q0.3 0.2 0.7 0.9 0.8 1.3 0.8 2.6 0 1-0.2 1.6-0.1 0.8-0.6 1.5l-1.8-1.7 0.8-1.3q0.4-0.7 0.4-1.4 0-0.6-0.5-0.8-0.2-0.1-0.5-0.1-0.2 0-0.4 0-0.4 0.2-0.7 0.3-0.7 0.4-1.1 0.9v5.9l-2.4-2.3v-2.2q-0.4 0.3-1 0.5-0.6 0.2-1.2 0.2-0.3 0-0.5-0.1c-0.5-0.1-0.9-0.5-1.4-1.1q-0.7-1.1-0.8-2 0-0.9 0.6-1.5 0.6-0.6 1.4-0.9 0.3 0 0.4 0 0.7 0 1.7 0.5 0.3 0.1 0.8 0.5v-2.4h-5.5v-1.8h13.8zm-8.5 3.9v-0.4c-0.1-0.1-0.2-0.1-0.5-0.2q-0.3 0-0.7 0-0.8 0-1.3 0.2-0.3 0.2-0.5 0.5-0.3 0.3-0.3 0.6 0 0.2 0.2 0.4 0.1 0.2 0.5 0.2 0.3 0 0.5-0.1 0.3-0.1 0.8-0.3 0.5-0.2 0.6-0.3 0.4-0.2 0.7-0.6zm-6.3-8.3l-1.2 1.2-1.2-1.2 1.2-1.2zm-2.6-0.2q0.2 0.7 0.2 1.3 0 0.4 0 0.7-0.1 0.2-0.2 0.8h3.6v1.8h-1.8v10.7l-1.9-1.9v-1.8q-0.5 0.8-1.3 1.1-0.8 0.4-1.8 0.4-1 0-2.1-1.2-1.1-1.3-1.1-2.6 0-1.3 1.2-2.3 1.2-0.8 2.4-0.8 0.8 0 1.6 0.6c0.6 0.3 0.9 0.6 1.1 0.9v-3.1h-6.5v-1.8h6q-0.6-0.4-1.2-0.6c-0.4-0.2-0.8-0.3-1.3-0.5q-0.7-0.2-1.4-0.2h-0.8q-0.3 0.1-0.5 0.1l-0.4-2.7q1 0 1.8 0.3 0.5 0.1 0.9 0.3 0.1 0.1 1.3 0.8 0.9 0.7 1.7 1.5-0.3-1.6-1.5-2.7-0.3-0.2-0.6-0.4-0.3-0.2-0.6-0.3l-0.1-1.9q0.7 0 1.2 0.3 0.5 0.3 1.1 0.8 0.4 0.5 0.6 1 0.3 0.6 0.4 1.4zm-0.1 9.1q-0.2-0.3-0.5-0.6-0.3-0.1-0.6-0.3-0.3-0.1-0.6-0.1c-0.3 0-0.6 0.1-1 0.2q-0.4 0.1-0.6 0.3l1.7 1.9q0.2-0.1 0.5-0.3 0.3-0.2 0.6-0.5 0.3-0.2 0.5-0.6zm-2.3 1.8l-1.7-1.9q-0.2 0-0.7 0.4-0.4 0.3-0.4 0.7 0 0.5 0.4 0.8 0.4 0.4 1 0.5 0.4 0 1.1-0.3 0.1-0.1 0.3-0.2zm-12.5-6.3h-2.1v10.7l-2.1-2v-8.7h-2.8v6.7q0 0.3-0.1 0.5 0 0.3-0.2 0.4-0.2 0.1-0.4 0.1-0.2 0-0.4-0.2-0.2-0.1-0.5-0.4l-1.9-2.8q0-0.2-0.1-0.3-0.1-0.2-0.1-0.4 0-0.1 0.1-0.2 0.1-0.2 0.3-0.2h1.6v-3.2h-2.5v-1.8h11.2zm-6.2-2.4h-0.5q-0.2-0.7-0.9-1.6-0.9-1.2-1.9-1.5-0.4-0.1-1-0.2-0.5-0.1-0.9-0.2-0.6 0-1.1 0.2-0.4 0.2-0.8 0.6-0.7 0.8-0.7 1.9 0.1 0.6 0.4 1.3h2.4v1.9h-2v10.6l-2.1-2.1v-8.5h-1.6v-1.9h1.6q-0.4-0.5-0.5-1.1-0.1-0.6-0.1-1.4 0-0.9 0.6-1.6 0.5-0.5 1.6-1 0.4-0.3 1.1-0.3 0.8 0.1 1.7 0.3 1 0.3 1.8 0.8 1.2 0.7 1.9 1.6 0.7 0.9 1 2.2zm-10.7 2.4h-1.9v10.6l-2.1-2.4v-8.2h-1.6v-1.9h5.6zm-5.6 0h-1.7v10.6l-2.3-2.3v-4.4q-0.3 0.2-0.5 0.3-0.3 0.1-0.7 0.3-0.4 0.3-0.9 0.9-0.2 0.2-0.5 0.5l-1.6-1.6 0.7-0.7q-0.4-0.4-1-0.4-0.3 0-0.6 0.1-0.5 0.1-0.7 0.6-0.3 0.5-0.3 1.1 0 0.7 0.5 1.2l2.2 2.2-0.7 0.8-2.1-2.2q-0.7-0.6-1.3-1.3-0.7-0.8-0.7-1.5 0-0.1 0.1-0.4c0.1-0.6 0.3-1.1 0.7-1.5q0.6-0.5 1.5-0.7 0.5-0.1 1.7 0.2 1.2 0.3 1.6 1c0.2-0.2 0.3-0.3 0.4-0.3q0.4-0.3 0.8-0.4 0.3-0.1 0.6-0.1 0.2-0.1 0.4-0.1h0.4v-1.9h-8.5v-1.9h12.5zm-20.9 0h-1.9v10.6l-2.1-2.3v-8.3h-1.5v-1.9h5.5zm-5.5 0h-6v2.3q0.7-0.5 1.5-0.5 0.1 0 0.4 0.1 0.2 0 0.6 0.1c0.2 0.1 0.4 0.2 0.6 0.4q0.3 0.2 0.8 0.9 0.8 1.2 0.8 2.6 0 1-0.2 1.6-0.2 0.7-0.7 1.5l-1.7-1.7 0.7-1.3q0.4-0.7 0.4-1.4 0-0.6-0.5-0.8-0.2-0.1-0.4-0.1-0.2 0-0.4 0-0.5 0.2-0.7 0.3-0.7 0.3-1.2 0.9v5.9l-2.3-2.3v-2.2q-0.4 0.3-1 0.5-0.7 0.2-1.2 0.2-0.4 0-0.6-0.1c-0.4-0.1-0.8-0.5-1.3-1.1q-0.8-1.1-0.8-2 0-0.9 0.5-1.5 0.6-0.6 1.5-0.9 0.2 0 0.4 0 0.7 0 1.6 0.5 0.4 0.1 0.9 0.5v-2.4h-5.6v-1.8h13.9zm-8.5 3.9v-0.4c-0.1-0.1-0.3-0.1-0.5-0.2q-0.4 0-0.7 0-0.9 0-1.3 0.2-0.4 0.2-0.6 0.5-0.2 0.3-0.2 0.6 0 0.2 0.1 0.4 0.1 0.2 0.6 0.2 0.2 0 0.5-0.1 0.2-0.1 0.7-0.3 0.5-0.2 0.6-0.3 0.4-0.2 0.8-0.6zm-8.9-8.6q0.1 0.7 0.1 1.3 0 0.4 0 0.7 0 0.3-0.1 0.8h3.5v1.9h-1.8v10.6l-1.8-1.9v-1.8q-0.6 0.8-1.4 1.2-0.8 0.3-1.7 0.3-1.1 0-2.2-1.2-1.1-1.3-1.1-2.6 0-1.3 1.3-2.2 1.1-0.9 2.3-0.9 0.8 0 1.7 0.6c0.5 0.3 0.9 0.6 1.1 0.9v-3h-6.5v-1.9h5.9q-0.6-0.4-1.1-0.6c-0.4-0.2-0.8-0.3-1.3-0.5q-0.7-0.1-1.5-0.1h-0.7q-0.4 0-0.6 0.1l-0.4-2.8q1 0 1.9 0.3 0.5 0.1 0.8 0.3 0.2 0.1 1.3 0.8 0.9 0.7 1.7 1.5-0.3-1.6-1.5-2.7-0.3-0.2-0.5-0.4-0.3-0.2-0.6-0.3l-0.2-1.9q0.7 0.1 1.2 0.3 0.5 0.3 1.1 0.8 0.5 0.5 0.7 1.1 0.2 0.5 0.4 1.3zm-0.1 9.1q-0.3-0.3-0.5-0.5-0.3-0.2-0.6-0.3-0.4-0.1-0.6-0.1c-0.4 0-0.7 0-1 0.1q-0.5 0.1-0.6 0.3l1.7 1.9q0.2-0.1 0.5-0.3 0.3-0.1 0.6-0.4 0.2-0.3 0.5-0.7zm-2.4 1.8l-1.7-1.9q-0.2 0-0.6 0.4-0.4 0.3-0.4 0.7-0.1 0.5 0.4 0.9 0.4 0.3 0.9 0.4 0.4 0 1.1-0.3 0.1 0 0.3-0.2zm-4.1-6.2h-2.1v10.6l-2.2-2.3v-4.1q-0.7 0.8-2 0.8-1 0-1.8-0.8-0.2 0.5-0.7 1.1-0.2 0.2-0.5 0.4l3.3 3.8-0.7 1-2.7-2.8q-1-1.1-1.7-2.2-0.6-1.2-0.6-2 0-0.7 0.2-1 0.2-0.3 0.8-0.4 0.1-0.1 0.5 0.1 0.3 0.1 0.6 0 0.3-0.1 0.4-0.4 0.1-0.2 0.1-0.7 0.1-0.6-0.4-1.1h-2.6v-1.9h12.1zm-4.3 1.8v-1.8h-3.3q0.1 0.3 0.1 0.6 0 0.3 0.1 0.8 0 0.6-0.1 0.8-0.1 0.4-0.1 0.7 0.5 0.6 1.3 0.6 0.2 0 0.3-0.1 1.7-0.3 1.7-1.6zm-293.6-24.2v-4.7"/></svg>